<svg width="512" height="512" viewBox="0 0 512 512" fill="none" xmlns="http://www.w3.org/2000/svg">
  <rect width="512" height="512" rx="136" fill="#111315"/>
  <rect x="66" y="66" width="380" height="380" rx="112" fill="url(#paint0_linear)" fill-opacity="0.12"/>
  <path d="M168 142H274C339.17 142 382 180.946 382 242C382 284.94 359.627 315.389 323.426 328.446C358.209 340.638 380 370.833 380 411V414H303V402C303 364.771 280.842 346 239 346H168V142ZM245 283C278.69 283 299 268.078 299 241C299 213.922 278.69 199 245 199H241V283H245ZM249 431C287.613 431 310 413.196 310 381.5C310 349.804 287.613 332 249 332H241V431H249Z" fill="white"/>
  <circle cx="384" cy="128" r="16" fill="#4EA1FF"/>
  <defs>
    <linearGradient id="paint0_linear" x1="66" y1="66" x2="446" y2="446" gradientUnits="userSpaceOnUse">
      <stop stop-color="#4EA1FF"/>
      <stop offset="1" stop-color="#FFFFFF" stop-opacity="0"/>
    </linearGradient>
  </defs>
</svg>
