<svg width="1200" height="630" viewBox="0 0 1200 630" fill="none" xmlns="http://www.w3.org/2000/svg">
  <rect width="1200" height="630" fill="#F5F5F7"/>
  <rect x="42" y="42" width="1116" height="546" rx="36" fill="#111315"/>
  <g opacity="0.9">
    <circle cx="1016" cy="166" r="220" fill="url(#paint0_radial)"/>
    <circle cx="206" cy="524" r="190" fill="url(#paint1_radial)"/>
  </g>
  <rect x="114" y="132" width="108" height="108" rx="28" fill="white" fill-opacity="0.08" stroke="white" stroke-opacity="0.12"/>
  <path d="M152 161H213.6C251.443 161 276.8 181.703 276.8 211.6C276.8 232.68 265.764 247.673 247.958 254.039C265.068 259.981 275.8 274.867 275.8 294.8V296.4H231.08V291.68C231.08 273.822 220.479 264.8 200.24 264.8H152V161ZM197.84 236.32C217.013 236.32 228.76 227.378 228.76 212.96C228.76 198.542 217.013 189.6 197.84 189.6H194.4V236.32H197.84ZM200.56 320.4C222.513 320.4 235.04 310.337 235.04 292.56C235.04 274.783 222.513 264.72 200.56 264.72H194.4V320.4H200.56Z" fill="white"/>
  <circle cx="242" cy="158" r="10" fill="#4EA1FF"/>
  <text x="114" y="328" fill="#4EA1FF" font-family="Inter, Arial, sans-serif" font-size="20" font-weight="700" letter-spacing="8">BAKAL DIGITAL</text>
  <text x="114" y="398" fill="white" font-family="Inter, Arial, sans-serif" font-size="64" font-weight="700">AI products, platforms,</text>
  <text x="114" y="474" fill="white" font-family="Inter, Arial, sans-serif" font-size="64" font-weight="700">automation, and digital systems.</text>
  <text x="114" y="536" fill="#B6BBC3" font-family="Inter, Arial, sans-serif" font-size="26" font-weight="500">Built for modern businesses that want sharper execution, cleaner operations, and premium digital presence.</text>
  <defs>
    <radialGradient id="paint0_radial" cx="0" cy="0" r="1" gradientUnits="userSpaceOnUse" gradientTransform="translate(1016 166) rotate(90) scale(220)">
      <stop stop-color="#4EA1FF" stop-opacity="0.45"/>
      <stop offset="1" stop-color="#4EA1FF" stop-opacity="0"/>
    </radialGradient>
    <radialGradient id="paint1_radial" cx="0" cy="0" r="1" gradientUnits="userSpaceOnUse" gradientTransform="translate(206 524) rotate(90) scale(190)">
      <stop stop-color="#FFFFFF" stop-opacity="0.14"/>
      <stop offset="1" stop-color="#FFFFFF" stop-opacity="0"/>
    </radialGradient>
  </defs>
</svg>
